<svg width="119" height="33" viewBox="0 0 119 33" fill="none" xmlns="http://www.w3.org/2000/svg">
<path d="M23.886 18.2802L18.5497 25.5329L13.2105 18.2832L0 0.325439H10.6711L18.5497 11.0305L23.886 18.2802Z" fill="#F00307"/>
<path d="M50.0849 0.344727L43.7586 8.94254L33.2489 23.2274L26.9182 31.8252H16.2441L22.5704 23.2274L33.0802 8.94254L39.4065 0.344727H50.0849Z" fill="#F00307"/>
<path d="M22.5704 23.2273H44.0235L37.6958 31.8251H16.2441L22.5704 23.2273Z" fill="#F00307"/>
<path d="M118.233 0.344727L111.905 8.94402H33.0786L39.4064 0.344727H118.233Z" fill="#F00307"/>
<path d="M37.0994 0.326904L23.886 18.2802L18.5512 25.5343L13.8882 31.7866H3.16687L13.2105 18.2832L18.5482 11.0335L18.5512 11.0305L19.2837 10.0346L26.4254 0.326904H37.0994Z" fill="#F00307"/>
<path d="M48.7782 12.4792L45.7653 19.9894C42.7627 17.6601 36.6169 21.6276 36.6169 21.6276C36.6169 21.6276 42.6665 13.8895 48.7782 12.4792Z" fill="#F00307"/>
<path d="M47.2095 22.6383C46.9905 21.524 46.5747 20.7427 46.0256 20.2129L52.8018 12.6332C53.2901 12.8108 53.7666 13.049 54.2313 13.3642C56.3682 14.8056 57.4677 17.0076 57.956 19.399L47.208 22.6398L47.2095 22.6383Z" fill="#F00307"/>
<path d="M58.2536 24.0575C58.0346 28.3357 56.7308 32.0723 56.7308 32.0723H46.0983C47.1933 28.1862 47.5159 25.4071 47.328 23.4537L58.2521 24.0575H58.2536Z" fill="#F00307"/>
<path d="M19.9111 12.9129L18.5482 11.0336L18.5512 11.0306L19.2837 10.0347L19.9111 12.9129Z" fill="white"/>
<path d="M45.2769 6.64282L44.8759 8.97356H43.7394L45.2769 6.64282Z" fill="white"/>
<path d="M32.1937 24.7412L33.2503 23.2244L34.7657 23.2111L32.1937 24.7412Z" fill="white"/>
</svg>
