<svg width="50" height="50" viewBox="0 0 50 50" fill="none" xmlns="http://www.w3.org/2000/svg">
<path d="M36.2591 8.78748H25.6612L22.7318 14.6462H20.7078V23.4337H23.6371V26.363H26.566V23.4337H35.3539V26.363H38.2833V23.4337H41.2122V14.6462H39.188L36.2591 8.78748ZM27.4712 11.7168H34.4487L35.9131 14.6462H26.0068L27.4712 11.7168ZM38.2833 20.5049H23.6371V17.5756H38.2833V20.5049Z" fill="black"/>
<path d="M30.9601 0C20.4612 0 11.9199 8.5415 11.9199 19.0399C11.9199 23.7633 13.6494 28.0899 16.5074 31.4213L14.6943 33.2344L12.6233 31.1631L0 43.7857L6.21377 50L18.8366 37.3768L16.7656 35.3058L18.5787 33.4923C21.9101 36.3507 26.2367 38.0798 30.9601 38.0798C41.4585 38.0799 50 29.5389 50 19.04C50 8.5415 41.4585 0 30.9601 0ZM6.21387 45.8572L4.14248 43.7862L12.6233 35.3058L14.6943 37.3768L6.21387 45.8572ZM30.96 35.1509C22.0763 35.1509 14.849 27.9236 14.849 19.0399C14.849 10.1566 22.0763 2.9293 30.96 2.9293C39.8433 2.9293 47.0706 10.1566 47.0706 19.0399C47.0706 27.9236 39.8433 35.1509 30.96 35.1509Z" fill="black"/>
</svg>
