<svg width="16" height="16" viewBox="0 0 16 16" fill="none" xmlns="http://www.w3.org/2000/svg">
<path d="M3.08 12.08C3.76 11.56 4.52 11.15 5.36 10.85C6.2 10.55 7.08 10.4 8 10.4C8.92 10.4 9.8 10.55 10.64 10.85C11.48 11.15 12.24 11.56 12.92 12.08C13.3867 11.5333 13.75 10.9133 14.01 10.22C14.27 9.52667 14.4 8.78667 14.4 8C14.4 6.22667 13.7767 4.71667 12.53 3.47C11.2833 2.22333 9.77333 1.6 8 1.6C6.22667 1.6 4.71667 2.22333 3.47 3.47C2.22333 4.71667 1.6 6.22667 1.6 8C1.6 8.78667 1.73 9.52667 1.99 10.22C2.25 10.9133 2.61333 11.5333 3.08 12.08ZM8 8.8C7.21333 8.8 6.55 8.53 6.01 7.99C5.47 7.45 5.2 6.78667 5.2 6C5.2 5.21333 5.47 4.55 6.01 4.01C6.55 3.47 7.21333 3.2 8 3.2C8.78667 3.2 9.45 3.47 9.99 4.01C10.53 4.55 10.8 5.21333 10.8 6C10.8 6.78667 10.53 7.45 9.99 7.99C9.45 8.53 8.78667 8.8 8 8.8ZM8 16C6.89333 16 5.85333 15.79 4.88 15.37C3.90667 14.95 3.06 14.38 2.34 13.66C1.62 12.94 1.05 12.0933 0.63 11.12C0.21 10.1467 0 9.10667 0 8C0 6.89333 0.21 5.85333 0.63 4.88C1.05 3.90667 1.62 3.06 2.34 2.34C3.06 1.62 3.90667 1.05 4.88 0.63C5.85333 0.21 6.89333 0 8 0C9.10667 0 10.1467 0.21 11.12 0.63C12.0933 1.05 12.94 1.62 13.66 2.34C14.38 3.06 14.95 3.90667 15.37 4.88C15.79 5.85333 16 6.89333 16 8C16 9.10667 15.79 10.1467 15.37 11.12C14.95 12.0933 14.38 12.94 13.66 13.66C12.94 14.38 12.0933 14.95 11.12 15.37C10.1467 15.79 9.10667 16 8 16ZM8 14.4C8.70667 14.4 9.37333 14.2967 10 14.09C10.6267 13.8833 11.2 13.5867 11.72 13.2C11.2 12.8133 10.6267 12.5167 10 12.31C9.37333 12.1033 8.70667 12 8 12C7.29333 12 6.62667 12.1033 6 12.31C5.37333 12.5167 4.8 12.8133 4.28 13.2C4.8 13.5867 5.37333 13.8833 6 14.09C6.62667 14.2967 7.29333 14.4 8 14.4ZM8 7.2C8.34667 7.2 8.63333 7.08667 8.86 6.86C9.08667 6.63333 9.2 6.34667 9.2 6C9.2 5.65333 9.08667 5.36667 8.86 5.14C8.63333 4.91333 8.34667 4.8 8 4.8C7.65333 4.8 7.36667 4.91333 7.14 5.14C6.91333 5.36667 6.8 5.65333 6.8 6C6.8 6.34667 6.91333 6.63333 7.14 6.86C7.36667 7.08667 7.65333 7.2 8 7.2Z" fill="#1C1B1F"/>
</svg>
