<svg width="18" height="16" viewBox="0 0 18 16" fill="none" xmlns="http://www.w3.org/2000/svg">
<path d="M4.55553 12.4444C4.80738 12.4444 5.01849 12.3593 5.18886 12.1889C5.35923 12.0185 5.44442 11.8074 5.44442 11.5556C5.44442 11.3037 5.35923 11.0926 5.18886 10.9222C5.01849 10.7519 4.80738 10.6667 4.55553 10.6667C4.30368 10.6667 4.09257 10.7519 3.9222 10.9222C3.75182 11.0926 3.66664 11.3037 3.66664 11.5556C3.66664 11.8074 3.75182 12.0185 3.9222 12.1889C4.09257 12.3593 4.30368 12.4444 4.55553 12.4444ZM3.66664 8.88889H5.44442V3.55556H3.66664V8.88889ZM8.11108 12.4444H14.3333V10.6667H8.11108V12.4444ZM8.11108 8.88889H14.3333V7.11111H8.11108V8.88889ZM8.11108 5.33333H14.3333V3.55556H8.11108V5.33333ZM1.88886 16C1.39997 16 0.981454 15.8259 0.633306 15.4778C0.285158 15.1296 0.111084 14.7111 0.111084 14.2222V1.77778C0.111084 1.28889 0.285158 0.87037 0.633306 0.522222C0.981454 0.174074 1.39997 0 1.88886 0H16.1111C16.6 0 17.0185 0.174074 17.3666 0.522222C17.7148 0.87037 17.8889 1.28889 17.8889 1.77778V14.2222C17.8889 14.7111 17.7148 15.1296 17.3666 15.4778C17.0185 15.8259 16.6 16 16.1111 16H1.88886ZM1.88886 14.2222H16.1111V1.77778H1.88886V14.2222Z" fill="#1C1B1F"/>
</svg>
