<svg width="44" height="50" viewBox="0 0 44 50" fill="none" xmlns="http://www.w3.org/2000/svg">
<path d="M41.0156 50V44.1406H43.9453V29.4922H40.699L37.7693 17.5781H34.4021C34.8899 16.2029 35.1562 14.7239 35.1562 13.1836C35.1562 5.91426 29.2419 0 21.9727 0C14.7034 0 8.78906 5.91436 8.78906 13.1836C8.78906 14.7239 9.05537 16.2029 9.54326 17.5781H6.17607L3.24639 29.4922H0V44.1406H2.92969V50H14.6484V44.1406H29.2969V50H41.0156ZM38.0859 47.0703H32.2266V44.1406H38.0859V47.0703ZM32.2266 13.1836C32.2266 18.3403 28.4 22.6192 23.4375 23.3326V20.2561C25.1426 19.6511 26.3672 18.0229 26.3672 16.1133C26.3672 13.6901 24.3957 11.7188 21.9727 11.7188C21.165 11.7188 20.5078 11.0615 20.5078 10.2539C20.5078 9.44629 21.165 8.78906 21.9727 8.78906C22.7803 8.78906 23.4375 9.44629 23.4375 10.2539H26.3672C26.3672 8.34424 25.1426 6.71611 23.4375 6.11113V3.03457C28.4 3.74805 32.2266 8.02686 32.2266 13.1836ZM20.5078 3.03457V6.11113C18.8027 6.71611 17.5781 8.34424 17.5781 10.2539C17.5781 12.6771 19.5496 14.6484 21.9727 14.6484C22.7803 14.6484 23.4375 15.3057 23.4375 16.1133C23.4375 16.9209 22.7803 17.5781 21.9727 17.5781C21.165 17.5781 20.5078 16.9209 20.5078 16.1133H17.5781C17.5781 18.0229 18.8027 19.6511 20.5078 20.2561V23.3326C15.5453 22.6192 11.7188 18.3403 11.7188 13.1836C11.7188 8.02686 15.5453 3.74795 20.5078 3.03457ZM11.0161 20.5078C13.3843 24.0383 17.4114 26.3672 21.9727 26.3672C26.5339 26.3672 30.561 24.0383 32.9292 20.5078H35.4729L37.6819 29.4922H6.26338L8.47236 20.5078H11.0161ZM2.92969 32.4219H41.0156V41.2109H29.2969V35.3516H14.6484V41.2109H2.92969V32.4219ZM26.3672 41.2109H17.5781V38.2812H26.3672V41.2109ZM11.7188 47.0703H5.85938V44.1406H11.7188V47.0703Z" fill="black"/>
<path d="M8.78906 33.8867C7.17354 33.8867 5.85938 35.2009 5.85938 36.8164C5.85938 38.4319 7.17354 39.7461 8.78906 39.7461C10.4046 39.7461 11.7188 38.4319 11.7188 36.8164C11.7188 35.2009 10.4046 33.8867 8.78906 33.8867ZM35.1562 39.7461C36.7718 39.7461 38.0859 38.4319 38.0859 36.8164C38.0859 35.2009 36.7718 33.8867 35.1562 33.8867C33.5407 33.8867 32.2266 35.2009 32.2266 36.8164C32.2266 38.4319 33.5407 39.7461 35.1562 39.7461Z" fill="black"/>
</svg>
