<svg width="25" height="25" viewBox="0 0 25 25" fill="none" xmlns="http://www.w3.org/2000/svg">
<g clip-path="url(#clip0_22_2866)">
<path d="M18.9491 4.49243C17.0249 4.55135 17.0254 7.3197 18.9491 7.37838C20.8733 7.31946 20.8729 4.55111 18.9491 4.49243ZM12.8521 6.25286C9.66433 6.25286 7.0802 8.84396 7.0802 12.0401C7.38419 19.7168 18.321 19.7146 18.624 12.0401C18.624 8.84396 16.0399 6.25286 12.8521 6.25286ZM12.8521 15.7967C10.7829 15.7967 9.10541 14.1149 9.10541 12.0401C9.30286 7.05708 16.4023 7.05852 16.5988 12.0401C16.5988 14.1147 14.9213 15.7967 12.8521 15.7967Z" fill="black"/>
<path d="M24.2054 7.31608C24.1207 3.30726 21.5705 0.755358 17.5612 0.671665C16.5985 0.578834 9.10611 0.57691 8.14269 0.671665C4.13434 0.756079 1.58269 3.30654 1.49875 7.31608C1.40592 8.27758 1.404 15.7729 1.49875 16.7351C1.57355 20.7309 4.14685 23.305 8.14269 23.3795C9.36104 23.4351 9.74992 23.4483 12.8521 23.4483C15.954 23.4483 16.3431 23.4351 17.5612 23.3795C18.7769 23.3239 19.6074 23.1308 20.3339 22.8485C22.88 21.8314 24.1241 19.5688 24.2054 16.7351C24.2982 15.7724 24.2999 8.27926 24.2054 7.31608ZM17.4674 21.3235C16.5201 21.4139 9.18451 21.4154 8.23648 21.3235C7.12298 21.2728 6.51814 21.0866 6.11555 20.9303C2.64063 19.3185 3.71805 16.0586 3.55427 11.5844C3.55788 10.5452 3.5521 8.44905 3.55451 7.40987C3.69328 4.31157 5.15236 2.87725 8.23648 2.72742C9.18499 2.63676 16.5187 2.63555 17.4674 2.72742C20.5665 2.86619 21.9993 4.32528 22.1494 7.40963C22.2107 8.15012 22.2552 12.1926 22.1494 14.2385C22.2636 18.0811 22.0886 21.0982 17.4674 21.3235Z" fill="black"/>
</g>
<defs>
<clipPath id="clip0_22_2866">
<rect width="24.0496" height="24.0496" fill="white" transform="translate(0.827271)"/>
</clipPath>
</defs>
</svg>
