<svg width="16" height="15" viewBox="0 0 16 15" fill="none" xmlns="http://www.w3.org/2000/svg">
<path opacity="0.5" d="M12.1905 15H3.80952V5.25L9.14286 0L10.0952 0.9375C10.1841 1.025 10.2571 1.14375 10.3143 1.29375C10.3714 1.44375 10.4 1.5875 10.4 1.725V1.9875L9.5619 5.25H14.4762C14.8825 5.25 15.2381 5.4 15.5429 5.7C15.8476 6 16 6.35 16 6.75V8.25C16 8.3375 15.9873 8.43125 15.9619 8.53125C15.9365 8.63125 15.9111 8.725 15.8857 8.8125L13.6 14.1C13.4857 14.35 13.2952 14.5625 13.0286 14.7375C12.7619 14.9125 12.4825 15 12.1905 15ZM5.33333 13.5H12.1905L14.4762 8.25V6.75H7.61905L8.64762 2.625L5.33333 5.8875V13.5ZM3.80952 5.25V6.75H1.52381V13.5H3.80952V15H0V5.25H3.80952Z" fill="#1C1B1F"/>
</svg>
