<svg width="25" height="25" viewBox="0 0 25 25" fill="none" xmlns="http://www.w3.org/2000/svg">
<g clip-path="url(#clip0_22_2870)">
<path d="M22.4144 0.604291C18.9005 0.59443 5.93993 0.611024 2.94432 0.604291C2.01216 0.604291 1.2558 1.33756 1.2558 2.24062V21.8124C1.2558 22.7157 2.01216 23.4482 2.94432 23.4482H22.4144C23.347 23.4482 24.1029 22.7157 24.1029 21.8122V2.24062C24.1029 1.33756 23.347 0.604291 22.4144 0.604291ZM8.19915 19.7218H4.78002V9.43721H8.19891V15.262C8.20035 16.3267 8.19843 18.6417 8.19915 19.7218ZM6.49019 8.03344C5.33845 8.04571 4.57608 7.25135 4.57849 6.25666C4.57512 3.90293 8.41439 3.87647 8.42425 6.2569C8.42425 7.24365 7.68208 8.03344 6.49019 8.03344ZM20.527 19.7218H17.1085V14.2204C17.1085 12.8378 16.6134 11.8948 15.3767 11.8948C14.1072 11.9391 13.4763 12.9239 13.51 13.9792V19.722L10.0914 19.7223C10.0914 19.7223 10.1363 10.4026 10.0916 9.43794H13.5103L13.4874 10.929C13.9374 10.227 14.7474 9.19648 16.5915 9.19648C18.8406 9.19648 20.5272 10.6664 20.5272 13.8253V19.7218H20.527Z" fill="black"/>
</g>
<defs>
<clipPath id="clip0_22_2870">
<rect width="24.0496" height="24.0496" fill="white" transform="translate(0.654541)"/>
</clipPath>
</defs>
</svg>
