<svg width="14" height="17" viewBox="0 0 14 17" fill="none" xmlns="http://www.w3.org/2000/svg">
<path d="M6.8 8.5C7.2675 8.5 7.66771 8.33354 8.00062 8.00063C8.33354 7.66771 8.5 7.2675 8.5 6.8C8.5 6.3325 8.33354 5.93229 8.00062 5.59938C7.66771 5.26646 7.2675 5.1 6.8 5.1C6.3325 5.1 5.93229 5.26646 5.59937 5.59938C5.26646 5.93229 5.1 6.3325 5.1 6.8C5.1 7.2675 5.26646 7.66771 5.59937 8.00063C5.93229 8.33354 6.3325 8.5 6.8 8.5ZM6.8 14.7475C8.52833 13.1608 9.81042 11.7194 10.6462 10.4231C11.4821 9.12687 11.9 7.97583 11.9 6.97C11.9 5.42583 11.4077 4.16146 10.4231 3.17688C9.43854 2.19229 8.23083 1.7 6.8 1.7C5.36917 1.7 4.16146 2.19229 3.17687 3.17688C2.19229 4.16146 1.7 5.42583 1.7 6.97C1.7 7.97583 2.11792 9.12687 2.95375 10.4231C3.78958 11.7194 5.07167 13.1608 6.8 14.7475ZM6.8 17C4.51917 15.0592 2.81562 13.2565 1.68938 11.5919C0.563125 9.92729 0 8.38667 0 6.97C0 4.845 0.683542 3.15208 2.05063 1.89125C3.41771 0.630417 5.00083 0 6.8 0C8.59917 0 10.1823 0.630417 11.5494 1.89125C12.9165 3.15208 13.6 4.845 13.6 6.97C13.6 8.38667 13.0369 9.92729 11.9106 11.5919C10.7844 13.2565 9.08083 15.0592 6.8 17Z" fill="#1C1B1F"/>
</svg>
