<svg width="50" height="50" viewBox="0 0 50 50" fill="none" xmlns="http://www.w3.org/2000/svg">
<mask id="mask0_22_2884" style="mask-type:luminance" maskUnits="userSpaceOnUse" x="0" y="0" width="50" height="50">
<path d="M0 0H50V50H0V0Z" fill="white"/>
</mask>
<g mask="url(#mask0_22_2884)">
<path d="M7.92649 20.0032C7.92649 10.5888 15.5857 2.92965 25 2.92965C34.4144 2.92965 42.0736 10.5888 42.0736 20.0032C42.0736 29.4175 34.4144 37.0767 25 37.0767C15.5857 37.0767 7.92649 29.4175 7.92649 20.0032ZM12.7744 40.7391L7.67922 40.4439L10.8888 34.1669C13.1059 36.3758 15.837 38.0683 18.8847 39.0492L15.9968 44.6969L12.7744 40.7391ZM34.0032 44.6969L31.1154 39.0492C34.163 38.0683 36.8942 36.3758 39.1113 34.1669L42.3208 40.4439L37.2256 40.7391L34.0032 44.6969ZM41.1718 31.7616C43.5798 28.4587 45.0032 24.3944 45.0032 20.0032C45.0032 8.97339 36.0298 -4.19617e-05 25 -4.19617e-05C13.9702 -4.19617e-05 4.9968 8.97339 4.9968 20.0032C4.9968 24.3944 6.42024 28.4587 8.82825 31.7616L3.026 43.1088L11.317 43.5893L16.5606 50.0295L21.8158 39.7519C23.9251 40.0911 26.075 40.0911 28.1842 39.7519L33.4395 50.0295L38.683 43.5893L46.974 43.1088L41.1718 31.7616Z" fill="black"/>
<path d="M25 10.0097C30.5105 10.0097 34.9935 14.4928 34.9935 20.0032C34.9935 25.5137 30.5105 29.9967 25 29.9967C19.4896 29.9967 15.0066 25.5137 15.0066 20.0032C15.0066 14.4928 19.4896 10.0097 25 10.0097ZM25 32.9264C32.1259 32.9264 37.9232 27.129 37.9232 20.0032C37.9232 12.8774 32.1259 7.08001 25 7.08001C17.8742 7.08001 12.0769 12.8774 12.0769 20.0032C12.0769 27.129 17.8742 32.9264 25 32.9264Z" fill="black"/>
<path d="M30.4955 17.7512L28.4239 15.6796L24.2514 19.8522L22.1622 17.7629L20.0906 19.8345L24.2514 23.9954L30.4955 17.7512Z" fill="black"/>
</g>
</svg>
