<svg width="42" height="50" viewBox="0 0 42 50" fill="none" xmlns="http://www.w3.org/2000/svg">
<path d="M40.4167 22.1624C36.9755 12.8811 30.7148 6.55322 30.45 6.28848L27.9494 3.78779V13.1836C27.9494 13.9913 27.2923 14.6484 26.4845 14.6484C25.6768 14.6484 25.0197 13.9913 25.0197 13.1836C25.0197 5.91416 19.1055 0 11.8361 0H10.3713V1.46484C10.3713 8.30606 5.88211 13.2341 2.47039 19.5695C-0.971212 25.9602 -0.806563 33.7896 2.89998 40.0024C6.60262 46.2087 13.3002 50 20.5097 50H21.1903C27.8971 50 34.1896 46.7097 38.0229 41.1983C41.8554 35.688 42.7484 28.4513 40.4167 22.1624ZM35.6178 39.5255C32.3318 44.2498 26.9385 47.0703 21.1903 47.0703H20.5097C14.3528 47.0703 8.56922 43.7869 5.4159 38.5015C2.23445 33.1688 2.09422 26.4469 5.04969 20.9586C8.27742 14.9649 12.6612 10.022 13.2371 3.025C18.2306 3.71025 22.0898 8.00469 22.0898 13.1835C22.0898 15.6066 24.0612 17.578 26.4844 17.578C28.9075 17.578 30.8789 15.6066 30.8789 13.1835V11.2683C32.9243 13.8785 35.778 18.0789 37.6695 23.1807C39.6679 28.57 38.8815 34.8329 35.6178 39.5255Z" fill="black"/>
<path d="M19.1603 25C19.1603 22.5769 17.189 20.6055 14.7658 20.6055C12.3427 20.6055 10.3713 22.5769 10.3713 25C10.3713 27.4231 12.3427 29.3945 14.7658 29.3945C17.189 29.3945 19.1603 27.4231 19.1603 25ZM13.301 25C13.301 24.1923 13.9581 23.5352 14.7658 23.5352C15.5735 23.5352 16.2307 24.1923 16.2307 25C16.2307 25.8077 15.5735 26.4648 14.7658 26.4648C13.9581 26.4648 13.301 25.8077 13.301 25ZM26.4846 32.3242C24.0614 32.3242 22.09 34.2956 22.09 36.7188C22.09 39.1419 24.0614 41.1133 26.4846 41.1133C28.9077 41.1133 30.8791 39.1419 30.8791 36.7188C30.8791 34.2956 28.9077 32.3242 26.4846 32.3242ZM26.4846 38.1836C25.6768 38.1836 25.0197 37.5265 25.0197 36.7188C25.0197 35.911 25.6768 35.2539 26.4846 35.2539C27.2923 35.2539 27.9494 35.911 27.9494 36.7188C27.9494 37.5265 27.2923 38.1836 26.4846 38.1836ZM12.1667 38.7082L26.8109 21.1352L29.0609 23.0102L14.4167 40.5832L12.1667 38.7082Z" fill="black"/>
</svg>
