<svg width="83" height="14" viewBox="0 0 83 14" fill="none" xmlns="http://www.w3.org/2000/svg">
<g clip-path="url(#clip0_12_574)">
<path d="M58.1151 10.9629L62.7103 14L61.2138 8.73477L65.5505 5.34685L60.03 5.13L58.1151 0L56.2015 5.13L50.6809 5.34685L55.0176 8.73477L53.5212 14L58.1151 10.9629Z" fill="#FCB116"/>
<path d="M75.0089 10.9629L79.6041 14L78.1064 8.73477L82.4444 5.34685L76.9238 5.13L75.0089 0L73.0941 5.13L67.5735 5.34685L71.9114 8.73477L70.4138 14L75.0089 10.9629Z" fill="#D1D3D4"/>
<path d="M24.3282 10.9629L28.9234 14L27.4257 8.73477L31.7637 5.34685L26.2431 5.13L24.3282 0L22.4134 5.13L16.894 5.34685L21.2308 8.73477L19.7331 14L24.3282 10.9629Z" fill="#FCB116"/>
<path d="M41.2223 10.9629L45.8174 14L44.3198 8.73477L48.6565 5.34685L43.1371 5.13L41.2223 0L39.3074 5.13L33.7869 5.34685L38.1248 8.73477L36.6271 14L41.2223 10.9629Z" fill="#FCB116"/>
<path d="M7.43543 10.9629L12.0294 14L10.5329 8.73477L14.8696 5.34685L9.34905 5.13L7.43543 0L5.52058 5.13L0 5.34685L4.33672 8.73477L2.84028 14L7.43543 10.9629Z" fill="#FCB116"/>
</g>
<defs>
<clipPath id="clip0_12_574">
<rect width="82.4444" height="14" fill="white"/>
</clipPath>
</defs>
</svg>
