<svg width="18" height="18" viewBox="0 0 18 18" fill="none" xmlns="http://www.w3.org/2000/svg">
<path d="M15.8418 17.0156L9.89184 11.0656C9.41962 11.4434 8.87656 11.7425 8.26267 11.9628C7.64878 12.1832 6.99554 12.2934 6.30295 12.2934C4.58721 12.2934 3.13513 11.6992 1.9467 10.5108C0.758276 9.32234 0.164062 7.87025 0.164062 6.15451C0.164062 4.43877 0.758276 2.98669 1.9467 1.79826C3.13513 0.609838 4.58721 0.015625 6.30295 0.015625C8.01869 0.015625 9.47078 0.609838 10.6592 1.79826C11.8476 2.98669 12.4418 4.43877 12.4418 6.15451C12.4418 6.84711 12.3317 7.50035 12.1113 8.11424C11.8909 8.72812 11.5918 9.27118 11.2141 9.7434L17.1641 15.6934L15.8418 17.0156ZM6.30295 10.4045C7.48351 10.4045 8.48698 9.99132 9.31337 9.16493C10.1398 8.33854 10.553 7.33507 10.553 6.15451C10.553 4.97396 10.1398 3.97049 9.31337 3.1441C8.48698 2.31771 7.48351 1.90451 6.30295 1.90451C5.1224 1.90451 4.11892 2.31771 3.29253 3.1441C2.46615 3.97049 2.05295 4.97396 2.05295 6.15451C2.05295 7.33507 2.46615 8.33854 3.29253 9.16493C4.11892 9.99132 5.1224 10.4045 6.30295 10.4045Z" fill="black"/>
</svg>
