<svg width="17" height="11" viewBox="0 0 17 11" fill="none" xmlns="http://www.w3.org/2000/svg">
<path opacity="0.5" d="M8.5 8.8C9.46591 8.8 10.2869 8.47917 10.9631 7.8375C11.6392 7.19583 11.9773 6.41667 11.9773 5.5C11.9773 4.58333 11.6392 3.80417 10.9631 3.1625C10.2869 2.52083 9.46591 2.2 8.5 2.2C7.53409 2.2 6.71307 2.52083 6.03693 3.1625C5.3608 3.80417 5.02273 4.58333 5.02273 5.5C5.02273 6.41667 5.3608 7.19583 6.03693 7.8375C6.71307 8.47917 7.53409 8.8 8.5 8.8ZM8.5 7.48C7.92045 7.48 7.42784 7.2875 7.02216 6.9025C6.61648 6.5175 6.41364 6.05 6.41364 5.5C6.41364 4.95 6.61648 4.4825 7.02216 4.0975C7.42784 3.7125 7.92045 3.52 8.5 3.52C9.07955 3.52 9.57216 3.7125 9.97784 4.0975C10.3835 4.4825 10.5864 4.95 10.5864 5.5C10.5864 6.05 10.3835 6.5175 9.97784 6.9025C9.57216 7.2875 9.07955 7.48 8.5 7.48ZM8.5 11C6.6197 11 4.90682 10.5019 3.36136 9.50583C1.81591 8.50972 0.695455 7.17444 0 5.5C0.695455 3.82556 1.81591 2.49028 3.36136 1.49417C4.90682 0.498056 6.6197 0 8.5 0C10.3803 0 12.0932 0.498056 13.6386 1.49417C15.1841 2.49028 16.3045 3.82556 17 5.5C16.3045 7.17444 15.1841 8.50972 13.6386 9.50583C12.0932 10.5019 10.3803 11 8.5 11ZM8.5 9.53333C9.9553 9.53333 11.2915 9.16972 12.5085 8.4425C13.7256 7.71528 14.6561 6.73444 15.3 5.5C14.6561 4.26556 13.7256 3.28472 12.5085 2.5575C11.2915 1.83028 9.9553 1.46667 8.5 1.46667C7.0447 1.46667 5.70852 1.83028 4.49148 2.5575C3.27443 3.28472 2.34394 4.26556 1.7 5.5C2.34394 6.73444 3.27443 7.71528 4.49148 8.4425C5.70852 9.16972 7.0447 9.53333 8.5 9.53333Z" fill="#1C1B1F"/>
</svg>
