<svg width="25" height="25" viewBox="0 0 25 25" fill="none" xmlns="http://www.w3.org/2000/svg">
<g clip-path="url(#clip0_22_2863)">
<path d="M23.7119 6.49072C23.449 5.50156 22.6748 4.72235 21.6919 4.45805C19.9101 3.9773 12.7657 3.97729 12.7657 3.97729C12.7657 3.97729 5.6213 3.97729 3.83971 4.45781C2.85656 4.72211 2.08241 5.50132 1.81979 6.49047C1.34216 8.28385 1.34216 12.0248 1.34216 12.0248C1.34216 12.0248 1.34216 15.7659 1.81955 17.559C2.08217 18.5482 2.85632 19.3272 3.83947 19.5917C5.6213 20.0722 12.7657 20.0722 12.7657 20.0722C12.7657 20.0722 19.9103 20.0722 21.6919 19.5917C22.6751 19.3272 23.449 18.5482 23.7119 17.559C24.1892 15.7657 24.1892 12.0248 24.1892 12.0248C24.1892 12.0248 24.1892 8.28385 23.7119 6.49072ZM10.429 15.4213V8.62824L16.4006 12.025L10.429 15.4213Z" fill="black"/>
</g>
<defs>
<clipPath id="clip0_22_2863">
<rect width="24.0496" height="24.0496" fill="white" transform="translate(0.740906)"/>
</clipPath>
</defs>
</svg>
